HIERARCHY
ROOT root
{
	OFFSET 0.000000 0.000000 0.000000
	CHANNELS 6 Xposition Yposition Zposition Zrotation Yrotation Xrotation
	JOINT lhip
	{
		OFFSET 0.058581 -0.082280 -0.017664
		CHANNELS 3 Zrotation Yrotation Xrotation
		JOINT lknee
		{
			OFFSET 0.043451 -0.386469 0.008037
			CHANNELS 3 Zrotation Yrotation Xrotation
			JOINT lankle
			{
				OFFSET -0.014790 -0.426874 -0.037428
				CHANNELS 3 Zrotation Yrotation Xrotation
				JOINT ltoe
				{
					OFFSET 0.041054 -0.060286 0.122042
					CHANNELS 3 Zrotation Yrotation Xrotation
					End Site
					{
						OFFSET 0.000000 0.000000 0.000000
					}
				}
			}
		}
	}
	JOINT rhip
	{
		OFFSET -0.060310 -0.090513 -0.013543
		CHANNELS 3 Zrotation Yrotation Xrotation
		JOINT rknee
		{
			OFFSET -0.043257 -0.383688 -0.004843
			CHANNELS 3 Zrotation Yrotation Xrotation
			JOINT rankle
			{
				OFFSET 0.019056 -0.420046 -0.034562
				CHANNELS 3 Zrotation Yrotation Xrotation
				JOINT rtoe
				{
					OFFSET -0.034840 -0.062106 0.130323
					CHANNELS 3 Zrotation Yrotation Xrotation
					End Site
					{
						OFFSET 0.000000 0.000000 0.000000
					}
				}
			}
		}
	}
	JOINT lowerback
	{
		OFFSET 0.004439 0.124404 -0.038385
		CHANNELS 3 Zrotation Yrotation Xrotation
		JOINT upperback
		{
			OFFSET 0.004488 0.137956 0.026820
			CHANNELS 3 Zrotation Yrotation Xrotation
			JOINT chest
			{
				OFFSET -0.002265 0.056032 0.002855
				CHANNELS 3 Zrotation Yrotation Xrotation
				JOINT lowerneck
				{
					OFFSET -0.013390 0.211636 -0.033468
					CHANNELS 3 Zrotation Yrotation Xrotation
					JOINT upperneck
					{
						OFFSET 0.010113 0.088937 0.050410
						CHANNELS 3 Zrotation Yrotation Xrotation
						End Site
						{
							OFFSET 0.000000 0.000000 0.000000
						}
					}
				}
				JOINT lclavicle
				{
					OFFSET 0.071702 0.114000 -0.018898
					CHANNELS 3 Zrotation Yrotation Xrotation
					JOINT lshoulder
					{
						OFFSET 0.122921 0.045205 -0.019046
						CHANNELS 3 Zrotation Yrotation Xrotation
						JOINT lelbow
						{
							OFFSET 0.255332 -0.015649 -0.022946
							CHANNELS 3 Zrotation Yrotation Xrotation
							JOINT lwrist
							{
								OFFSET 0.265709 0.012698 -0.007375
								CHANNELS 3 Zrotation Yrotation Xrotation
								End Site
								{
									OFFSET 0.000000 0.000000 0.000000
								}
							}
						}
					}
				}
				JOINT rclavicle
				{
					OFFSET -0.082954 0.112472 -0.023707
					CHANNELS 3 Zrotation Yrotation Xrotation
					JOINT rshoulder
					{
						OFFSET -0.113228 0.046853 -0.008472
						CHANNELS 3 Zrotation Yrotation Xrotation
						JOINT relbow
						{
							OFFSET -0.260127 -0.014369 -0.031269
							CHANNELS 3 Zrotation Yrotation Xrotation
							JOINT rwrist
							{
								OFFSET -0.269108 0.006794 -0.006027
								CHANNELS 3 Zrotation Yrotation Xrotation
								End Site
								{
									OFFSET 0.000000 0.000000 0.000000
								}
							}
						}
					}
				}
			}
		}
	}
}
MOTION
Frames: 18
Frame Time: 0.033333
0.362384 0.163400 0.993805 87.070291 -0.007429 90.515388 6.935159 4.532146 4.731682 -3.973814 -2.077962 -4.929897 -0.521860 7.849171 -3.254060 0.000000 -0.000000 0.000000 -6.939063 -3.797642 0.577480 2.213949 -1.198062 1.280611 4.975576 -4.459668 -6.267401 0.000000 -0.000000 0.000000 -4.533691 3.445712 -8.229557 1.885874 -1.901983 13.594565 -0.447976 0.821643 -4.293511 4.926621 3.115418 4.783331 5.787234 -3.304050 -1.414122 -28.426733 -1.926781 -0.959827 -54.944007 -7.417656 17.382026 2.222152 -18.473997 10.339980 -7.786367 -14.872540 12.281169 30.263090 3.845022 5.376372 55.281826 4.154933 14.570419 -8.936007 24.309645 -0.097970 2.491041 11.607579 3.176569 
0.361619 0.163304 0.993643 87.203013 0.019234 90.476741 6.964902 4.397572 4.629925 -3.954744 -2.081125 -4.802236 -0.523254 7.823667 -3.267495 0.000000 -0.000000 0.000000 -6.887718 -3.749433 0.609014 2.213161 -1.175253 1.264104 4.940661 -4.621094 -6.258500 0.000000 -0.000000 0.000000 -4.515139 3.359979 -7.900754 1.819164 -1.909713 12.994790 -0.341272 0.800965 -3.971268 4.906357 3.040968 4.359732 5.703984 -3.308907 -0.841528 -28.211208 -1.964563 -0.918568 -55.196553 -7.499389 17.131396 2.143662 -18.293379 10.543050 -8.415795 -14.615043 12.241124 29.978329 3.750599 5.462267 55.584658 4.408576 14.628324 -9.038191 24.208110 0.059154 2.846214 11.526409 3.189439 
0.360179 0.163043 0.993402 87.521359 0.175721 90.544699 7.208189 4.156699 4.211272 -4.047732 -2.076868 -4.438261 -0.473197 7.755220 -3.254667 0.000000 -0.000000 0.000000 -6.613326 -3.727672 0.503212 2.138354 -1.282251 1.261922 4.800507 -4.885367 -6.206403 0.000000 -0.000000 0.000000 -4.453164 3.355635 -7.428346 1.828550 -2.140982 12.298478 -0.232446 0.811121 -3.802589 4.891368 2.872760 4.175354 5.706952 -3.237534 -0.625824 -28.061311 -2.027587 -0.894830 -55.457225 -7.494505 17.249003 2.273860 -18.336050 10.589871 -8.537428 -14.526539 12.105895 29.654352 3.902064 5.506797 55.957752 4.230048 14.772324 -9.290993 24.329744 -0.030408 2.812151 11.475823 2.906631 
0.361394 0.163232 0.993694 87.072655 0.013115 90.326889 6.946313 4.445380 4.848938 -3.928169 -2.064049 -4.905562 -0.536245 7.828037 -3.208084 0.000000 -0.000000 0.000000 -6.925021 -3.693670 0.743967 2.231501 -1.116438 1.215819 5.046940 -4.575864 -6.200518 0.000000 -0.000000 0.000000 -4.480135 3.344763 -7.839220 1.838082 -1.772866 12.777016 -0.309157 0.775772 -3.733076 4.897463 2.973001 4.224694 5.675881 -3.279571 -0.756631 -28.203941 -1.859319 -0.883087 -55.268360 -7.624421 16.930556 2.082322 -18.347636 10.953919 -8.606837 -14.592785 12.236814 29.895542 3.343915 5.336602 55.663481 4.648081 14.458096 -9.040149 24.366490 0.630748 3.101414 11.216896 3.304143 
0.361138 0.163244 0.993709 87.093883 0.010253 90.306925 6.942568 4.452797 4.826133 -3.923473 -2.078640 -4.863792 -0.532126 7.829976 -3.220874 0.000000 -0.000000 0.000000 -6.926828 -3.698082 0.739297 2.226016 -1.125057 1.241359 5.047215 -4.577533 -6.201615 0.000000 -0.000000 0.000000 -4.471674 3.333772 -7.795748 1.827914 -1.784153 12.759698 -0.311446 0.776704 -3.746020 4.890622 2.978123 4.212842 5.695142 -3.268166 -0.755989 -28.195587 -1.877431 -0.879803 -55.258984 -7.615327 16.943633 2.066910 -18.365527 10.956855 -8.556026 -14.592260 12.202909 29.892301 3.371179 5.342823 55.661405 4.657376 14.466988 -9.034131 24.354022 0.617100 3.082013 11.229157 3.263733 
0.359260 0.162984 0.993600 87.510195 0.168665 90.399690 7.165129 4.221199 4.278412 -3.995905 -2.145644 -4.393666 -0.502029 7.804612 -3.249986 0.000000 -0.000000 0.000000 -6.620523 -3.653174 0.575744 2.150136 -1.224559 1.231000 4.857461 -4.911359 -6.219039 0.000000 -0.000000 0.000000 -4.387266 3.328699 -7.265997 1.799605 -2.069662 12.053324 -0.190402 0.825235 -3.662039 4.820195 2.908264 4.112795 5.741231 -3.254543 -0.715691 -27.894254 -2.014257 -1.045074 -55.842382 -7.986870 17.075248 2.146693 -17.461632 10.910360 -8.666829 -14.724962 12.369015 29.400851 3.822230 5.417847 56.215045 4.368876 14.744858 -9.267989 24.225621 0.236039 2.738587 11.453515 2.741921 
0.360482 0.163237 0.993991 87.105130 -0.008733 90.222065 6.878712 4.467210 4.905703 -3.864968 -2.135418 -4.887373 -0.617597 7.889465 -3.228395 0.000000 -0.000000 0.000000 -6.926689 -3.585577 0.779225 2.216368 -1.093299 1.212166 5.007222 -4.670751 -6.214581 0.000000 -0.000000 0.000000 -4.451355 3.304018 -7.782299 1.762544 -1.731250 12.738895 -0.262286 0.850202 -3.744833 4.903062 3.113888 4.223439 5.671345 -3.341353 -0.839723 -27.929949 -2.017626 -0.977445 -55.732409 -7.999497 16.856910 2.031671 -17.407789 10.852672 -8.780859 -14.795872 12.565505 29.447432 3.900157 5.522167 56.232945 4.407745 14.677189 -9.248111 24.238887 0.127751 2.616342 11.413675 2.899315 
0.360185 0.163190 0.994138 87.108133 -0.025290 90.155521 6.859925 4.496247 4.974825 -3.874055 -2.171947 -4.903163 -0.610885 7.881753 -3.213500 0.000000 -0.000000 0.000000 -6.944570 -3.594500 0.832116 2.214149 -1.065824 1.210501 5.020872 -4.652084 -6.220287 0.000000 -0.000000 0.000000 -4.439635 3.275223 -7.774362 1.738549 -1.729796 12.766944 -0.270141 0.875964 -3.717277 4.897864 3.120215 4.205702 5.713043 -3.276418 -0.894070 -27.910900 -2.061630 -0.931709 -55.724064 -8.015238 16.792515 2.037898 -17.410748 10.922156 -8.705393 -14.750424 12.538561 29.456049 3.840015 5.468143 56.264482 4.446160 14.593879 -9.244099 24.315874 0.277987 2.645578 11.351681 2.911605 
0.359739 0.163109 0.994236 87.160621 -0.037460 90.100989 6.844036 4.466420 4.969080 -3.868529 -2.194960 -4.870050 -0.589934 7.879925 -3.179654 0.000000 -0.000000 0.000000 -6.954084 -3.616979 0.839012 2.217523 -1.070309 1.258977 5.009198 -4.662281 -6.223034 0.000000 -0.000000 0.000000 -4.444282 3.279615 -7.644014 1.733021 -1.738612 12.604511 -0.261352 0.869093 -3.654043 4.857934 3.019628 4.149139 5.713301 -3.268357 -0.842959 -27.924006 -2.058648 -0.939638 -55.700085 -8.093630 16.768734 1.995060 -17.322011 11.041685 -8.716705 -14.788290 12.508933 29.481110 3.711188 5.419318 56.220548 4.551468 14.551049 -9.151822 24.278518 0.533206 2.739138 11.294437 2.952626 
0.359386 0.163024 0.994298 87.145555 -0.025122 90.081682 6.862074 4.470748 4.967954 -3.883603 -2.197867 -4.869277 -0.571547 7.877392 -3.193790 0.000000 -0.000000 0.000000 -6.936113 -3.637811 0.818913 2.218424 -1.016150 1.262388 5.032853 -4.684729 -6.190391 0.000000 -0.000000 0.000000 -4.460228 3.276081 -7.602849 1.781318 -1.746314 12.420425 -0.236544 0.799345 -3.549924 4.843453 2.984750 4.077938 5.629892 -3.237258 -0.680026 -27.990342 -1.897004 -1.014284 -55.653925 -8.149917 16.765345 1.944533 -17.240533 11.257179 -8.735574 -14.815795 12.496703 29.612396 3.355913 5.193527 56.023461 4.711601 14.505560 -8.985230 24.308929 0.892649 2.950020 11.204795 3.163272 
0.359069 0.163076 0.994420 87.126342 -0.049812 90.068400 6.811809 4.455228 4.982787 -3.847496 -2.210776 -4.883280 -0.610559 7.902916 -3.204525 0.000000 -0.000000 0.000000 -6.965114 -3.604152 0.814321 2.212278 -1.039352 1.264488 5.046666 -4.649204 -6.180855 0.000000 -0.000000 0.000000 -4.438101 3.294958 -7.674351 1.739868 -1.715833 12.544791 -0.246354 0.852645 -3.652558 4.850527 3.007914 4.161144 5.660757 -3.312061 -0.780684 -27.927479 -2.094687 -0.893463 -55.679100 -8.049309 16.787659 2.006312 -17.297968 11.030203 -8.749353 -14.859433 12.524379 29.459181 3.824156 5.521932 56.246882 4.489835 14.564356 -9.198148 24.308351 0.338454 2.654900 11.324140 2.956865 
0.356766 0.162687 0.994263 87.603072 0.140867 90.195472 7.100195 4.165838 4.313016 -3.966038 -2.257931 -4.343702 -0.467065 7.805877 -3.236838 0.000000 -0.000000 0.000000 -6.624982 -3.682984 0.592447 2.144484 -1.165017 1.309025 4.831009 -4.939407 -6.186765 0.000000 -0.000000 0.000000 -4.407679 3.300586 -7.036206 1.822175 -2.050449 11.661941 -0.121461 0.666044 -3.429567 4.764642 2.915360 3.880587 5.626776 -3.063745 -0.563624 -27.943865 -1.951137 -1.019840 -55.748702 -8.132026 16.922746 2.054414 -17.347491 11.359419 -8.669064 -14.710826 12.252357 29.464840 3.346351 5.077759 56.145126 4.662784 14.597995 -9.046058 24.407227 1.005436 3.035294 11.150068 2.919926 
0.356380 0.162601 0.994265 87.617406 0.166849 90.190933 7.141231 4.128973 4.282185 -3.983933 -2.235854 -4.325395 -0.442642 7.802808 -3.227678 0.000000 -0.000000 0.000000 -6.577598 -3.676110 0.574639 2.123794 -1.162393 1.311222 4.809283 -4.960725 -6.172419 0.000000 -0.000000 0.000000 -4.389730 3.319690 -6.962738 1.827642 -2.089836 11.502505 -0.108803 0.681762 -3.377658 4.735527 2.879558 3.870368 5.622706 -3.033656 -0.528770 -27.939367 -1.933661 -1.030639 -55.775019 -8.130456 16.940961 2.070400 -17.332612 11.397231 -8.663455 -14.702662 12.236108 29.448750 3.313632 5.061014 56.149250 4.670329 14.606288 -9.025684 24.376742 1.079880 3.070465 11.167365 2.891814 
0.356055 0.162718 0.994266 87.598996 0.163668 90.165928 7.143570 4.110498 4.314090 -3.984920 -2.214095 -4.354367 -0.481644 7.830138 -3.183574 0.000000 -0.000000 0.000000 -6.574235 -3.628446 0.576155 2.092989 -1.177846 1.317622 4.838717 -4.915625 -6.127929 0.000000 -0.000000 0.000000 -4.348899 3.355080 -6.925275 1.761870 -2.076004 11.457451 -0.111163 0.749982 -3.421131 4.768560 2.797472 4.014963 5.656813 -3.064242 -0.541242 -27.840232 -2.091861 -0.952507 -55.885593 -8.025883 17.003542 2.191925 -17.286748 11.137444 -8.643044 -14.723742 12.292085 29.188869 3.862925 5.447430 56.469637 4.411827 14.790632 -9.224496 24.276770 0.481226 2.719092 11.370164 2.635343 
0.355480 0.162849 0.994146 87.634348 0.207279 90.179345 7.196488 4.109809 4.233158 -3.992619 -2.180871 -4.320252 -0.485017 7.764477 -3.161560 0.000000 -0.000000 0.000000 -6.530667 -3.660393 0.504227 2.099191 -1.165703 1.352052 4.823369 -4.948329 -6.119902 0.000000 -0.000000 0.000000 -4.313342 3.360777 -6.857768 1.834767 -2.125621 11.230213 -0.101813 0.651768 -3.244893 4.726453 2.821787 3.943655 5.601836 -2.966728 -0.495466 -27.953349 -1.870779 -1.080278 -55.862868 -8.133519 16.970522 2.193104 -17.256679 11.371016 -8.772503 -14.659880 12.304065 29.319327 3.260234 5.032637 56.211424 4.620878 14.656812 -9.051669 24.448406 1.124840 3.222589 11.141480 2.934618 
0.355247 0.162931 0.994212 87.615310 0.157815 90.148058 7.134402 4.139515 4.280777 -3.971064 -2.174581 -4.335462 -0.506210 7.777496 -3.170246 0.000000 -0.000000 0.000000 -6.591986 -3.627011 0.537473 2.102668 -1.154968 1.342509 4.862717 -4.948729 -6.131589 0.000000 -0.000000 0.000000 -4.308485 3.369432 -6.885445 1.754922 -2.066833 11.416802 -0.130128 0.740327 -3.404892 4.770783 2.767457 4.012394 5.657544 -3.083290 -0.553917 -27.849749 -2.067042 -0.952747 -55.877679 -8.065368 16.987164 2.196530 -17.298396 11.119604 -8.765688 -14.677418 12.338352 29.104981 3.848446 5.423380 56.562617 4.320539 14.757333 -9.345808 24.379069 0.419693 2.890667 11.322963 2.642111 
0.354937 0.162920 0.994227 87.617819 0.153494 90.151344 7.131437 4.150576 4.268474 -3.968469 -2.185037 -4.351676 -0.519211 7.774856 -3.165374 0.000000 -0.000000 0.000000 -6.586954 -3.626019 0.518418 2.095260 -1.147688 1.340529 4.866811 -4.960552 -6.138457 0.000000 -0.000000 0.000000 -4.303625 3.353117 -6.858502 1.752524 -2.064557 11.352565 -0.125194 0.728958 -3.396592 4.760819 2.761002 3.975798 5.640512 -3.073932 -0.500828 -27.847514 -2.032489 -0.951986 -55.871255 -8.047878 16.998479 2.169775 -17.324215 11.146120 -8.705516 -14.659058 12.293834 29.110342 3.825813 5.404764 56.547465 4.312864 14.787512 -9.328759 24.382080 0.444344 2.869810 11.304745 2.636828 
0.354410 0.163159 0.994081 87.663910 0.151336 90.194297 7.167117 4.206367 4.237563 -4.013357 -2.271600 -4.435190 -0.558063 7.750910 -3.078332 0.000000 -0.000000 0.000000 -6.603476 -3.597282 0.482523 2.121841 -1.188708 1.294679 4.827256 -5.006165 -6.079358 0.000000 -0.000000 0.000000 -4.293994 3.321194 -6.884668 1.772189 -2.051696 11.381027 -0.122366 0.728097 -3.450285 4.715398 2.729607 4.009936 5.673619 -3.149140 -0.507538 -27.908636 -2.050912 -0.911559 -55.841529 -8.037297 17.030918 2.200774 -17.332843 11.090936 -8.760410 -14.632246 12.339148 29.122314 3.812940 5.344454 56.525928 4.126319 14.789308 -9.390095 24.547857 0.426492 2.832506 11.288302 2.631453 
